<mxfile host="app.diagrams.net" modified="2024-05-03T06:34:25.598Z" agent="Mozilla/5.0 (Macintosh; Intel Mac OS X 10_15_7) AppleWebKit/537.36 (KHTML, like Gecko) Chrome/124.0.0.0 Safari/537.36" version="24.3.1" etag="_EGEihernvZmcJPKwt6s" type="github">
  <diagram name="第 1 页" id="GdZX25CLRXVPu3kJ_-SC">
    <mxGraphModel>
      <root>
        <mxCell id="0" />
        <mxCell id="1" parent="0" />
      </root>
    </mxGraphModel>
  </diagram>
</mxfile>
